# xmcd CD database file
# Copyright (C) 1996 Ti Kan
#
# Track frame offsets:
# 	187
# 	13067
# 	30950
# 	43887
# 	60055
# 	77770
# 	92060
# 	107157
# 	125602
# 	139602
#
# Disc length: 2065 seconds
#
# Revision: 1
# Processed by: cddbd v1.4b41PL1 Copyright (c) Steve Scherf et al.
# Submitted via: DiscPlay 3.4.1
#
DISCID=76080f0a
DTITLE=Patty Loveless - On Down the Line
DYEAR=1900
DGENRE=
TTITLE0=Overtime
TTITLE1=The Night's Too Long
TTITLE2=Blue Memories
TTITLE3=Some Morining Soon
TTITLE4=You Can't Run Away From Your Heart
TTITLE5=On Down the Line
TTITLE6=I've Got to Stop Loving You
TTITLE7=Looking in the Eyes of Love
TTITLE8=I'm That Kind of Girl
TTITLE9=Feelings of Love
EXTD=
EXTT0=
EXTT1=
EXTT2=
EXTT3=
EXTT4=
EXTT5=
EXTT6=
EXTT7=
EXTT8=
EXTT9=
PLAYORDER=
